<?xml version="1.0" encoding="UTF-8" standalone="no" ?>
<!DOCTYPE svg PUBLIC "-//W3C//DTD SVG 1.1//EN" "http://www.w3.org/Graphics/SVG/1.1/DTD/svg11.dtd">
<svg xmlns="http://www.w3.org/2000/svg" xmlns:xlink="http://www.w3.org/1999/xlink" version="1.1" width="1280" height="1024" viewBox="0 0 1280 1024" xml:space="preserve">
<desc>Created with Fabric.js 5.3.0</desc>
<defs>
</defs>
<g transform="matrix(1 0 0 1 640 512)" id="background-logo"  >
<rect style="stroke: none; stroke-width: 0; stroke-dasharray: none; stroke-linecap: butt; stroke-dashoffset: 0; stroke-linejoin: miter; stroke-miterlimit: 4; fill: rgb(123,86,54); fill-rule: nonzero; opacity: 1;"  paint-order="stroke"  x="-640" y="-512" rx="0" ry="0" width="1280" height="1024" />
</g>
<g transform="matrix(1.9211538461538462 0 0 1.9211538461538462 644.7431647898742 683.7764365419638)" id="text-logo"  >
<g style=""  paint-order="stroke"   >
		<g transform="matrix(1 0 0 1 0 0)" id="text-logo-path-0"  >
<path style="stroke: none; stroke-width: 0; stroke-dasharray: none; stroke-linecap: butt; stroke-dashoffset: 0; stroke-linejoin: miter; stroke-miterlimit: 4; fill: rgb(214,186,162); fill-rule: nonzero; opacity: 1;"  paint-order="stroke"  transform=" translate(-155.11, 14.04)" d="M 2.12 -7.43 L 2.12 -7.43 L 2.12 -19.62 Q 2.12 -23.6 4.37 -25.84 Q 6.63 -28.08 10.61 -28.08 L 10.61 -28.08 L 27.56 -28.08 L 27.56 -20.94 L 13.51 -20.94 Q 11.39 -20.94 11.39 -18.81 L 11.39 -18.81 L 11.39 -8.49 Q 11.39 -7.69 11.92 -7.16 Q 12.45 -6.63 13.25 -6.63 L 13.25 -6.63 Q 18.01 -6.63 27.56 -7.43 L 27.56 -7.43 L 27.56 -0.52 Q 17.88 0.52 10.43 0.52 L 10.43 0.52 Q 10.25 0.52 10.07 0.52 L 10.07 0.52 Q 6.47 0.52 4.3 -1.64 Q 2.12 -3.8 2.12 -7.43 Z M 32.96 -7.94 L 32.96 -7.94 L 32.96 -20.13 Q 32.96 -24.12 35.21 -26.37 Q 37.46 -28.62 41.45 -28.62 L 41.45 -28.62 L 53.63 -28.62 Q 57.62 -28.62 59.86 -26.37 Q 62.1 -24.12 62.1 -20.13 L 62.1 -20.13 L 62.1 -7.94 Q 62.1 -3.96 59.85 -1.72 Q 57.59 0.52 53.63 0.52 L 53.63 0.52 L 41.45 0.52 Q 37.46 0.52 35.21 -1.73 Q 32.96 -3.99 32.96 -7.94 Z M 42.22 -19.36 L 42.22 -8.75 Q 42.22 -6.63 44.34 -6.63 L 44.34 -6.63 L 50.71 -6.63 Q 52.83 -6.63 52.83 -8.75 L 52.83 -8.75 L 52.83 -19.36 Q 52.83 -21.45 50.76 -21.45 L 50.76 -21.45 Q 50.74 -21.45 50.71 -21.45 L 50.71 -21.45 L 44.34 -21.45 Q 42.22 -21.45 42.22 -19.36 L 42.22 -19.36 Z M 68.56 -7.43 L 68.56 -7.43 L 68.56 -37.11 L 77.85 -37.11 L 77.85 -8.75 Q 77.85 -7.94 78.38 -7.41 Q 78.91 -6.88 79.68 -6.88 L 79.68 -6.88 L 82.87 -6.88 L 82.87 0 Q 79.32 0.52 76.11 0.52 Q 72.9 0.52 70.73 -1.64 Q 68.56 -3.8 68.56 -7.43 Z M 88.26 -7.43 L 88.26 -7.43 L 88.26 -37.11 L 97.55 -37.11 L 97.55 -8.75 Q 97.55 -7.94 98.08 -7.41 Q 98.61 -6.88 99.39 -6.88 L 99.39 -6.88 L 102.57 -6.88 L 102.57 0 Q 99.03 0.52 95.82 0.52 Q 92.61 0.52 90.44 -1.64 Q 88.26 -3.8 88.26 -7.43 Z M 106.65 -7.43 L 106.65 -7.43 L 106.65 -9.81 Q 106.65 -13.41 108.82 -15.58 Q 111 -17.75 114.6 -17.75 L 114.6 -17.75 L 125.46 -17.75 L 125.46 -19.88 Q 125.46 -20.68 124.93 -21.21 Q 124.4 -21.74 123.63 -21.74 L 123.63 -21.74 Q 120.19 -21.74 116.02 -21.41 Q 111.85 -21.09 109.32 -20.94 L 109.32 -20.94 L 109.32 -27.56 Q 119.02 -28.62 126.78 -28.62 L 126.78 -28.62 Q 130.38 -28.62 132.57 -26.45 Q 134.76 -24.27 134.76 -20.68 L 134.76 -20.68 L 134.76 0 L 126.53 0 L 126.01 -2.64 Q 123.52 -1.01 120.9 -0.25 Q 118.27 0.52 116.46 0.52 L 116.46 0.52 L 114.6 0.52 Q 111 0.52 108.82 -1.64 Q 106.65 -3.8 106.65 -7.43 Z M 115.94 -9.26 L 115.94 -8.75 Q 115.94 -7.94 116.47 -7.41 Q 117 -6.88 117.78 -6.88 L 117.78 -6.88 L 119.1 -6.88 Q 121.92 -6.88 125.46 -7.94 L 125.46 -7.94 L 125.46 -11.13 L 117.78 -11.13 Q 116.98 -11.13 116.46 -10.6 Q 115.94 -10.07 115.94 -9.26 L 115.94 -9.26 Z M 150.48 0 L 141.19 0 L 141.19 -28.08 L 149.42 -28.08 L 149.93 -24.64 Q 154.49 -28.62 159.48 -28.62 L 159.48 -28.62 L 161.86 -28.62 L 161.86 -20.39 L 157.36 -20.39 Q 154.02 -20.39 150.48 -18.81 L 150.48 -18.81 L 150.48 0 Z M 187.94 -14.83 L 166.2 -14.83 L 166.2 -22.26 L 187.94 -22.26 L 187.94 -14.83 Z M 186.45 9.01 L 186.45 2.12 L 193.33 2.12 Q 194.14 2.12 194.67 1.59 Q 195.2 1.06 195.2 0.26 L 195.2 0.26 L 195.2 -27.02 L 204.46 -27.02 L 204.46 1.58 Q 204.46 5.18 202.29 7.36 Q 200.12 9.55 196.52 9.55 L 196.52 9.55 Q 191.6 9.55 186.45 9.01 L 186.45 9.01 Z M 204.46 -30.2 L 195.2 -30.2 L 195.2 -37.63 L 204.46 -37.63 L 204.46 -30.2 Z M 210.92 -7.94 L 210.92 -7.94 L 210.92 -20.13 Q 210.92 -24.12 213.17 -26.37 Q 215.42 -28.62 219.41 -28.62 L 219.41 -28.62 L 231.6 -28.62 Q 235.58 -28.62 237.82 -26.37 Q 240.06 -24.12 240.06 -20.13 L 240.06 -20.13 L 240.06 -7.94 Q 240.06 -3.96 237.81 -1.72 Q 235.56 0.52 231.6 0.52 L 231.6 0.52 L 219.41 0.52 Q 215.42 0.52 213.17 -1.73 Q 210.92 -3.99 210.92 -7.94 Z M 220.19 -19.36 L 220.19 -8.75 Q 220.19 -6.63 222.31 -6.63 L 222.31 -6.63 L 228.67 -6.63 Q 230.8 -6.63 230.8 -8.75 L 230.8 -8.75 L 230.8 -19.36 Q 230.8 -21.45 228.73 -21.45 L 228.73 -21.45 Q 228.7 -21.45 228.67 -21.45 L 228.67 -21.45 L 222.31 -21.45 Q 220.19 -21.45 220.19 -19.36 L 220.19 -19.36 Z M 266.13 0 L 246.52 0 L 246.52 -37.11 L 255.81 -37.11 L 255.81 -27.56 Q 260.96 -28.62 264.81 -28.62 L 264.81 -28.62 L 266.68 -28.62 Q 270.27 -28.62 272.45 -26.45 Q 274.62 -24.27 274.62 -20.68 L 274.62 -20.68 L 274.62 -8.49 Q 274.62 -4.5 272.37 -2.25 Q 270.12 0 266.13 0 L 266.13 0 Z M 255.81 -20.94 L 255.81 -7.14 L 263.24 -7.14 Q 265.36 -7.14 265.33 -9.26 L 265.33 -9.26 L 265.33 -19.62 Q 265.33 -20.42 264.8 -20.94 Q 264.27 -21.45 263.49 -21.45 L 263.49 -21.45 L 262.17 -21.45 Q 259.95 -21.45 258.33 -21.25 Q 256.71 -21.04 255.81 -20.94 L 255.81 -20.94 Z M 279.48 -18.3 L 279.48 -18.3 L 279.48 -20.13 Q 279.48 -23.73 281.65 -25.9 Q 283.82 -28.08 287.42 -28.08 L 287.42 -28.08 L 305.43 -28.08 L 305.43 -21.19 L 290.6 -21.19 Q 289.8 -21.19 289.27 -20.66 Q 288.74 -20.13 288.74 -19.36 L 288.74 -19.36 Q 288.74 -18.56 289.27 -18.02 Q 289.8 -17.49 290.6 -17.49 L 290.6 -17.49 L 300.15 -17.49 Q 303.75 -17.49 305.92 -15.32 Q 308.1 -13.15 308.1 -9.55 L 308.1 -9.55 L 308.1 -7.43 Q 308.1 -3.83 305.92 -1.66 Q 303.75 0.52 300.15 0.52 L 300.15 0.52 Q 290.78 0.52 279.99 -0.52 L 279.99 -0.52 L 279.99 -7.43 Q 290.76 -6.63 296.97 -6.63 L 296.97 -6.63 Q 297.77 -6.63 298.29 -7.16 Q 298.81 -7.69 298.81 -8.49 L 298.81 -8.49 L 298.81 -10.33 L 287.42 -10.33 Q 283.82 -10.33 281.65 -12.5 Q 279.48 -14.67 279.48 -18.3 Z" stroke-linecap="round" />
</g>
</g>
</g>
<g transform="matrix(1.9211538461538462 0 0 1.9211538461538462 637.8002372194072 800.3896322310618)" id="tagline-993e43cc-f1ea-4c8f-83e3-03e1c0b27e0e-logo"  >
<g style=""  paint-order="stroke"   >
		<g transform="matrix(1 0 0 1 0 0)" id="tagline-993e43cc-f1ea-4c8f-83e3-03e1c0b27e0e-logo-path-0"  >
<path style="stroke: none; stroke-width: 0; stroke-dasharray: none; stroke-linecap: butt; stroke-dashoffset: 0; stroke-linejoin: miter; stroke-miterlimit: 4; fill: rgb(214,186,162); fill-rule: nonzero; opacity: 1;"  paint-order="stroke"  transform=" translate(-180.25500000000002, 16.305)" d="M 0.9 0 L 3.05 0 L 4.13 0 L 6.29 0 L 6.29 -0.57 L 4.13 -1.12 L 4.13 -15.74 L 16.06 -15.74 C 18.27 -15.74 19.99 -16.52 21.25 -18.08 C 22.51 -19.62 23.13 -21.76 23.13 -24.44 C 23.13 -29.65 20.56 -32.56 16.06 -32.56 L 6.29 -32.56 L 3.63 -32.56 L 0.9 -32.56 L 0.9 -32.06 L 3.05 -31.49 L 3.05 -16.82 L 1.97 -16.59 L 1.97 -16.02 L 3.05 -15.74 L 3.05 -1.12 L 0.9 -0.57 Z M 16.06 -16.82 L 4.13 -16.82 L 4.13 -31.49 L 16.06 -31.49 C 21.32 -31.49 22.05 -27.06 22.05 -24.44 C 22.05 -19.67 19.83 -16.82 16.06 -16.82 Z M 24.35 0 L 26.55 0 L 27.63 0 L 29.79 0 L 29.79 -0.57 L 27.63 -1.12 C 27.7 -6.45 28.18 -11.36 29.01 -15.74 L 46.86 -15.74 C 47.67 -11.36 48.15 -6.45 48.22 -1.12 L 46.06 -0.57 L 46.06 0 L 48.22 0 L 49.34 0 L 51.52 0 L 51.52 -0.57 L 49.34 -1.12 L 49.29 -1.12 C 49.18 -10.14 47.92 -18.11 45.9 -23.89 C 44.87 -26.76 43.67 -29.03 42.32 -30.68 C 40.96 -32.31 39.5 -33.14 37.94 -33.14 C 36.35 -33.14 34.88 -32.31 33.53 -30.68 C 32.17 -29.03 30.98 -26.76 29.97 -23.89 C 27.93 -18.11 26.62 -10.14 26.55 -1.12 L 24.35 -0.57 Z M 46.68 -16.82 L 29.24 -16.82 C 31.07 -25.89 34.29 -32.06 37.94 -32.06 C 41.58 -32.06 44.77 -25.86 46.68 -16.82 Z M 52.78 -32.06 L 54.94 -31.49 L 54.99 -31.49 C 55.47 -23.96 60.65 -19.87 65.8 -16.02 L 65.8 -1.12 L 63.64 -0.57 L 63.64 0 L 65.8 0 L 66.87 0 L 69.03 0 L 69.03 -0.57 L 66.87 -1.12 L 66.87 -16.02 C 71.97 -19.9 77.32 -23.96 77.68 -31.49 L 77.73 -31.49 L 79.89 -32.06 L 79.89 -32.56 L 77.73 -32.56 L 76.65 -32.56 L 74.49 -32.56 L 74.49 -32.06 L 76.6 -31.49 C 76.24 -24.49 71.37 -20.81 66.35 -16.96 C 61.21 -20.88 56.55 -24.44 56.06 -31.49 L 58.18 -32.06 L 58.18 -32.56 L 56.02 -32.56 L 54.94 -32.56 L 52.78 -32.56 Z M 92.83 0 L 95.03 0 L 96.11 0 L 98.27 0 L 98.27 -0.57 L 96.11 -1.12 C 96.18 -6.45 96.66 -11.36 97.49 -15.74 L 115.34 -15.74 C 116.15 -11.36 116.63 -6.45 116.7 -1.12 L 114.54 -0.57 L 114.54 0 L 116.7 0 L 117.82 0 L 120 0 L 120 -0.57 L 117.82 -1.12 L 117.78 -1.12 C 117.66 -10.14 116.4 -18.11 114.38 -23.89 C 113.35 -26.76 112.15 -29.03 110.8 -30.68 C 109.44 -32.31 107.98 -33.14 106.42 -33.14 C 104.83 -33.14 103.36 -32.31 102.01 -30.68 C 100.66 -29.03 99.46 -26.76 98.45 -23.89 C 96.41 -18.11 95.1 -10.14 95.03 -1.12 L 92.83 -0.57 Z M 115.16 -16.82 L 97.72 -16.82 C 99.55 -25.89 102.77 -32.06 106.42 -32.06 C 110.06 -32.06 113.25 -25.86 115.16 -16.82 Z M 121.58 0 L 123.74 0 L 124.82 0 L 126.98 0 L 126.98 -0.57 L 124.82 -1.12 L 124.82 -30.36 L 146.62 0.28 C 146.74 0.44 146.88 0.53 147.06 0.53 L 147.24 0.53 C 147.49 0.41 147.63 0.25 147.63 0 L 147.63 -31.49 L 149.79 -32.06 L 149.79 -32.56 L 147.63 -32.56 L 146.53 -32.56 L 144.37 -32.56 L 144.37 -32.06 L 146.53 -31.49 L 146.53 -1.74 L 124.73 -32.34 C 124.61 -32.5 124.45 -32.56 124.27 -32.56 L 121.58 -32.56 L 121.58 -32.06 L 123.74 -31.49 L 123.74 -1.12 L 121.58 -0.57 Z M 151.56 0 L 162.99 0 C 171.5 0 176.55 -6.13 176.55 -16.32 C 176.55 -26.53 171.5 -32.56 162.99 -32.56 L 151.56 -32.56 L 151.56 -32.06 L 153.76 -31.49 L 153.76 -1.12 L 151.56 -0.57 Z M 162.99 -1.12 L 154.84 -1.12 L 154.84 -31.49 L 162.99 -31.49 C 167 -31.49 170.08 -30.18 172.21 -27.54 C 174.35 -24.9 175.42 -21.16 175.42 -16.32 C 175.42 -11.45 174.35 -7.71 172.21 -5.07 C 170.08 -2.43 167 -1.12 162.99 -1.12 Z M 189.88 -16.32 C 189.88 -5.97 195.07 0.53 203.47 0.53 C 209.78 0.53 214.87 -4.59 214.87 -10.85 L 214.87 -16.32 C 214.87 -16.62 214.62 -16.82 214.32 -16.82 L 203.47 -16.82 L 203.47 -16.32 L 213.75 -15.74 L 213.75 -10.85 C 213.75 -5.16 209.16 -0.57 203.47 -0.57 C 195.64 -0.57 190.96 -6.45 190.96 -16.32 C 190.96 -20.88 191.99 -24.74 194.01 -27.49 C 196.22 -30.55 199.36 -32.06 203.47 -32.06 C 208.65 -32.06 213.04 -28.18 213.66 -23.13 L 211.09 -25.01 L 210.7 -24.58 L 213.93 -21.34 C 214.09 -21.18 214.3 -21.16 214.51 -21.25 C 214.76 -21.32 214.87 -21.46 214.87 -21.71 C 214.87 -28.04 209.78 -33.14 203.47 -33.14 C 195.07 -33.14 189.88 -26.64 189.88 -16.32 Z M 216.66 0 L 219.39 0 L 222.06 0 L 238.37 0 C 238.63 0 238.81 -0.11 238.9 -0.37 C 238.95 -0.6 238.9 -0.78 238.74 -0.94 L 235.5 -4.18 L 235.14 -3.81 L 237.07 -1.12 L 219.9 -1.12 L 219.9 -15.74 L 231.83 -15.74 L 232.41 -13.59 L 232.93 -13.59 L 232.93 -19.02 L 232.41 -19.02 L 231.83 -16.82 L 219.9 -16.82 L 219.9 -31.49 L 237.07 -31.49 L 235.14 -28.76 L 235.5 -28.39 L 238.74 -31.67 C 238.9 -31.83 238.97 -32.04 238.9 -32.24 C 238.76 -32.45 238.58 -32.56 238.37 -32.56 L 222.06 -32.56 L 219.9 -32.56 L 219.39 -32.56 L 218.82 -32.56 L 216.66 -32.56 L 216.66 -32.06 L 218.82 -31.49 L 218.82 -16.82 L 217.74 -16.59 L 217.74 -16.02 L 218.82 -15.74 L 218.82 -1.12 L 216.66 -0.57 Z M 240.21 -32.24 C 240.14 -32.01 240.19 -31.83 240.35 -31.67 L 243.08 -28.96 L 243.45 -29.33 L 242.02 -31.49 L 251.02 -31.49 L 251.02 -1.12 L 248.84 -0.57 L 248.84 0 L 251.02 0 L 252.1 0 L 254.3 0 L 254.3 -0.57 L 252.1 -1.12 L 252.1 -31.49 L 261.12 -31.49 L 259.69 -29.33 L 260.08 -28.96 L 262.81 -31.67 C 262.91 -31.78 262.95 -31.9 262.95 -32.06 C 262.95 -32.22 262.91 -32.34 262.81 -32.43 C 262.72 -32.52 262.58 -32.56 262.42 -32.56 L 252.1 -32.56 L 251.02 -32.56 L 240.71 -32.56 C 240.46 -32.56 240.3 -32.45 240.21 -32.24 Z M 275.99 0 L 278.14 0 L 279.22 0 L 281.38 0 L 281.38 -0.57 L 279.22 -1.12 L 279.22 -15.74 L 291.16 -15.74 C 293.36 -15.74 295.08 -16.52 296.34 -18.08 C 297.61 -19.62 298.23 -21.76 298.23 -24.44 C 298.23 -29.65 295.65 -32.56 291.16 -32.56 L 281.38 -32.56 L 278.72 -32.56 L 275.99 -32.56 L 275.99 -32.06 L 278.14 -31.49 L 278.14 -16.82 L 277.07 -16.59 L 277.07 -16.02 L 278.14 -15.74 L 278.14 -1.12 L 275.99 -0.57 Z M 291.16 -16.82 L 279.22 -16.82 L 279.22 -31.49 L 291.16 -31.49 C 296.41 -31.49 297.15 -27.06 297.15 -24.44 C 297.15 -19.67 294.92 -16.82 291.16 -16.82 Z M 299.44 0 L 301.64 0 L 302.72 0 L 304.88 0 L 304.88 -0.57 L 302.72 -1.12 C 302.79 -6.45 303.27 -11.36 304.1 -15.74 L 321.95 -15.74 C 322.76 -11.36 323.24 -6.45 323.31 -1.12 L 321.15 -0.57 L 321.15 0 L 323.31 0 L 324.43 0 L 326.61 0 L 326.61 -0.57 L 324.43 -1.12 L 324.39 -1.12 C 324.27 -10.14 323.01 -18.11 320.99 -23.89 C 319.96 -26.76 318.76 -29.03 317.41 -30.68 C 316.06 -32.31 314.59 -33.14 313.03 -33.14 C 311.44 -33.14 309.98 -32.31 308.62 -30.68 C 307.27 -29.03 306.07 -26.76 305.06 -23.89 C 303.02 -18.11 301.71 -10.14 301.64 -1.12 L 299.44 -0.57 Z M 321.77 -16.82 L 304.33 -16.82 C 306.17 -25.89 309.38 -32.06 313.03 -32.06 C 316.68 -32.06 319.87 -25.86 321.77 -16.82 Z M 327.83 0 L 329.99 0 L 331.11 0 L 333.27 0 L 333.27 -0.57 L 331.11 -1.12 L 331.11 -31.49 L 333.27 -32.06 L 333.27 -32.56 L 331.11 -32.56 L 329.99 -32.56 L 327.83 -32.56 L 327.83 -32.06 L 329.99 -31.49 L 329.99 -1.12 L 327.83 -0.57 Z M 334.62 0 L 346.05 0 C 354.57 0 359.61 -6.13 359.61 -16.32 C 359.61 -26.53 354.57 -32.56 346.05 -32.56 L 334.62 -32.56 L 334.62 -32.06 L 336.83 -31.49 L 336.83 -1.12 L 334.62 -0.57 Z M 346.05 -1.12 L 337.9 -1.12 L 337.9 -31.49 L 346.05 -31.49 C 350.07 -31.49 353.14 -30.18 355.28 -27.54 C 357.41 -24.9 358.49 -21.16 358.49 -16.32 C 358.49 -11.45 357.41 -7.71 355.28 -5.07 C 353.14 -2.43 350.07 -1.12 346.05 -1.12 Z" stroke-linecap="round" />
</g>
</g>
</g>
<g transform="matrix(1.7893151681390533 0 0 1.7893151681390533 643.8164331943212 353.69736718266256)" id="logo-logo"  >
<g style=""  paint-order="stroke"   >
		<g transform="matrix(1.445969803564656 0 0 -1.445969803564656 -83.46680141413049 -29.2808892542065)"  >
<path style="stroke: none; stroke-width: 1; stroke-dasharray: none; stroke-linecap: butt; stroke-dashoffset: 0; stroke-linejoin: miter; stroke-miterlimit: 4; fill: rgb(214,186,162); fill-rule: nonzero; opacity: 1;"  paint-order="stroke"  transform=" translate(-542.4685, -420.692)" d="M 555.979 423.859 L 560.229 423.859 L 560.229 419.609 L 555.979 419.609 z M 558.8960000000001 433.984 L 563.1460000000001 433.984 L 563.1460000000001 429.734 L 558.8960000000001 429.734 z M 558.8960000000001 456.234 L 563.1460000000001 456.234 L 563.1460000000001 451.984 L 558.8960000000001 451.984 z M 567.3960000000001 398.484 L 563.1460000000001 398.484 L 563.1460000000001 402.734 L 567.3960000000001 402.734 z M 567.3960000000001 419.609 L 563.1460000000001 419.609 L 563.1460000000001 423.859 L 567.3960000000001 423.859 z M 526.75 418.901 L 531 418.901 L 531 414.651 L 526.75 414.651 z M 526.75 449.48400000000004 L 531 449.48400000000004 L 531 445.23400000000004 L 526.75 445.23400000000004 z M 533.583 442.73400000000004 L 537.833 442.73400000000004 L 537.833 438.48400000000004 L 533.583 438.48400000000004 z M 537.875 421.73400000000004 L 533.625 421.73400000000004 L 533.625 425.98400000000004 L 537.875 425.98400000000004 z M 540.25 408.94200000000006 L 544.5 408.94200000000006 L 544.5 404.69200000000006 L 540.25 404.69200000000006 z M 540.25 433.98400000000004 L 544.5 433.98400000000004 L 544.5 429.73400000000004 L 540.25 429.73400000000004 z M 533.625 408.942 L 537.875 408.942 L 537.875 404.692 L 533.625 404.692 z M 570.354 444.73400000000004 L 566 444.73400000000004 L 566 458.73400000000004 L 560.5 458.73400000000004 L 560.5 468.73400000000004 L 554.354 468.73400000000004 L 554.354 444.73400000000004 L 554.354 442.23400000000004 L 554.354 379.98400000000004 L 547.5 379.98400000000004 L 547.5 456.23400000000004 L 542.75 456.23400000000004 L 542.75 468.73400000000004 L 528.75 468.73400000000004 L 528.75 456.23400000000004 L 524 456.23400000000004 L 524 379.98400000000004 L 514.583 379.98400000000004 L 514.583 372.65000000000003 L 568.9169999999999 372.65000000000003 L 570.3539999999999 379.98400000000004 z" stroke-linecap="round" />
</g>
		<g transform="matrix(1.445969803564656 0 0 -1.445969803564656 -8.637862208936042 0)"  >
<path style="stroke: none; stroke-width: 1; stroke-dasharray: none; stroke-linecap: butt; stroke-dashoffset: 0; stroke-linejoin: miter; stroke-miterlimit: 4; fill: rgb(214,186,162); fill-rule: nonzero; opacity: 1;"  paint-order="stroke"  transform=" translate(-593.8860000000001, -400)" d="M 605.562 397.875 L 601.312 397.875 L 601.312 402.125 L 605.562 402.125 z M 596.646 430.734 L 592.396 430.734 L 592.396 434.984 L 596.646 434.984 z M 596.646 397.875 L 592.396 397.875 L 592.396 402.125 L 596.646 402.125 z M 596.646 357.19100000000003 L 592.396 357.19100000000003 L 592.396 361.44100000000003 L 596.646 361.44100000000003 z M 590.271 449.85900000000004 L 586.021 449.85900000000004 L 586.021 454.10900000000004 L 590.271 454.10900000000004 z M 590.271 413.85900000000004 L 586.021 413.85900000000004 L 586.021 418.10900000000004 L 590.271 418.10900000000004 z M 590.271 377.85900000000004 L 586.021 377.85900000000004 L 586.021 382.10900000000004 L 590.271 382.10900000000004 z M 595.193 473.612 L 595.193 500.23400000000004 L 592.579 500.23400000000004 L 592.579 473.612 L 586.202 473.612 L 570.354 330.502 L 593.8860000000001 299.766 L 617.4180000000001 330.502 L 601.5700000000002 473.612 z" stroke-linecap="round" />
</g>
		<g transform="matrix(1.445969803564656 0 0 -1.445969803564656 73.78241865475633 -34.70327615313366)"  >
<path style="stroke: none; stroke-width: 1; stroke-dasharray: none; stroke-linecap: butt; stroke-dashoffset: 0; stroke-linejoin: miter; stroke-miterlimit: 4; fill: rgb(214,186,162); fill-rule: nonzero; opacity: 1;"  paint-order="stroke"  transform=" translate(-650.833, -423.942)" d="M 618.625 421.734 L 622.875 421.734 L 622.875 417.484 L 618.625 417.484 z M 618.625 444.859 L 622.875 444.859 L 622.875 440.609 L 618.625 440.609 z M 628.292 404.859 L 632.542 404.859 L 632.542 400.609 L 628.292 400.609 z M 628.292 432.859 L 632.542 432.859 L 632.542 428.609 L 628.292 428.609 z M 642.625 460.484 L 646.875 460.484 L 646.875 456.234 L 642.625 456.234 z M 647.375 415.984 L 651.625 415.984 L 651.625 411.734 L 647.375 411.734 z M 647.375 442.734 L 651.625 442.734 L 651.625 438.484 L 647.375 438.484 z M 660.625 411.734 L 664.875 411.734 L 664.875 407.484 L 660.625 407.484 z M 666.5 394.984 L 670.75 394.984 L 670.75 390.734 L 666.5 390.734 z M 674.5 379.984 L 674.5 421.234 L 658.5 421.234 L 658.5 379.984 L 653.75 379.984 L 653.75 475.234 L 640 475.234 L 640 379.984 L 637.25 379.984 L 637.25 437.734 L 616.25 456.234 L 616.25 379.984 L 616.583 379.984 L 618.021 372.65 L 685.4159999999999 372.65 L 685.4159999999999 379.984 z" stroke-linecap="round" />
</g>
</g>
</g>
</svg>